<mxfile modified="2023-03-28T03:39:58.821Z" host="app.diagrams.net" agent="Mozilla/5.0 (Macintosh; Intel Mac OS X 10_15_7) AppleWebKit/537.36 (KHTML, like Gecko) Chrome/110.0.0.0 Safari/537.36" etag="XcD_Mm7r6RlT2cC2Btoz" version="21.1.1" type="github">
  <diagram id="Ht1M8jgEwFfnCIfOTk4-" name="Page-1">
    <mxGraphModel dx="1434" dy="796" grid="1" gridSize="10" guides="1" tooltips="1" connect="1" arrows="1" fold="1" page="1" pageScale="1" pageWidth="827" pageHeight="1169" math="0" shadow="0">
      <root>
        <mxCell id="0" />
        <mxCell id="1" parent="0" />
        <mxCell id="rvi_bXYax2LASAxKja3c-2" value="AWS Cloud" style="points=[[0,0],[0.25,0],[0.5,0],[0.75,0],[1,0],[1,0.25],[1,0.5],[1,0.75],[1,1],[0.75,1],[0.5,1],[0.25,1],[0,1],[0,0.75],[0,0.5],[0,0.25]];outlineConnect=0;gradientColor=none;html=1;whiteSpace=wrap;fontSize=12;fontStyle=0;container=1;pointerEvents=0;collapsible=0;recursiveResize=0;shape=mxgraph.aws4.group;grIcon=mxgraph.aws4.group_aws_cloud;strokeColor=#232F3E;fillColor=none;verticalAlign=top;align=left;spacingLeft=30;fontColor=#232F3E;dashed=0;" vertex="1" parent="1">
          <mxGeometry x="80" y="300" width="863" height="480" as="geometry" />
        </mxCell>
        <mxCell id="rvi_bXYax2LASAxKja3c-3" value="Region" style="points=[[0,0],[0.25,0],[0.5,0],[0.75,0],[1,0],[1,0.25],[1,0.5],[1,0.75],[1,1],[0.75,1],[0.5,1],[0.25,1],[0,1],[0,0.75],[0,0.5],[0,0.25]];outlineConnect=0;gradientColor=none;html=1;whiteSpace=wrap;fontSize=12;fontStyle=0;container=1;pointerEvents=0;collapsible=0;recursiveResize=0;shape=mxgraph.aws4.group;grIcon=mxgraph.aws4.group_region;strokeColor=#147EBA;fillColor=none;verticalAlign=top;align=left;spacingLeft=30;fontColor=#147EBA;dashed=1;" vertex="1" parent="rvi_bXYax2LASAxKja3c-2">
          <mxGeometry x="30" y="30" width="823" height="440" as="geometry" />
        </mxCell>
        <mxCell id="rvi_bXYax2LASAxKja3c-7" value="Public subnet" style="points=[[0,0],[0.25,0],[0.5,0],[0.75,0],[1,0],[1,0.25],[1,0.5],[1,0.75],[1,1],[0.75,1],[0.5,1],[0.25,1],[0,1],[0,0.75],[0,0.5],[0,0.25]];outlineConnect=0;gradientColor=none;html=1;whiteSpace=wrap;fontSize=12;fontStyle=0;container=1;pointerEvents=0;collapsible=0;recursiveResize=0;shape=mxgraph.aws4.group;grIcon=mxgraph.aws4.group_security_group;grStroke=0;strokeColor=#248814;fillColor=#E9F3E6;verticalAlign=top;align=left;spacingLeft=30;fontColor=#248814;dashed=0;" vertex="1" parent="rvi_bXYax2LASAxKja3c-3">
          <mxGeometry x="55.5" y="89" width="210" height="330" as="geometry" />
        </mxCell>
        <mxCell id="rvi_bXYax2LASAxKja3c-5" value="Availability Zone 1" style="fillColor=none;strokeColor=#147EBA;dashed=1;verticalAlign=top;fontStyle=0;fontColor=#147EBA;whiteSpace=wrap;html=1;" vertex="1" parent="rvi_bXYax2LASAxKja3c-7">
          <mxGeometry x="-2.5" y="-70" width="210" height="400" as="geometry" />
        </mxCell>
        <mxCell id="rvi_bXYax2LASAxKja3c-94" value="" style="rounded=0;whiteSpace=wrap;html=1;fillColor=none;strokeColor=#ffac4d;strokeWidth=2;" vertex="1" parent="rvi_bXYax2LASAxKja3c-7">
          <mxGeometry x="20" y="40" width="180" height="151" as="geometry" />
        </mxCell>
        <mxCell id="rvi_bXYax2LASAxKja3c-13" value="" style="sketch=0;points=[[0,0,0],[0.25,0,0],[0.5,0,0],[0.75,0,0],[1,0,0],[0,1,0],[0.25,1,0],[0.5,1,0],[0.75,1,0],[1,1,0],[0,0.25,0],[0,0.5,0],[0,0.75,0],[1,0.25,0],[1,0.5,0],[1,0.75,0]];outlineConnect=0;fontColor=#232F3E;gradientColor=#F78E04;gradientDirection=north;fillColor=#D05C17;strokeColor=#ffffff;dashed=0;verticalLabelPosition=bottom;verticalAlign=top;align=center;html=1;fontSize=12;fontStyle=0;aspect=fixed;shape=mxgraph.aws4.resourceIcon;resIcon=mxgraph.aws4.compute;" vertex="1" parent="rvi_bXYax2LASAxKja3c-7">
          <mxGeometry x="143.46" y="111" width="50" height="50" as="geometry" />
        </mxCell>
        <mxCell id="rvi_bXYax2LASAxKja3c-96" value="&lt;div&gt;&lt;div&gt;EC2 instance security group&lt;/div&gt;&lt;div&gt;&lt;br&gt;&lt;/div&gt;&lt;div&gt;SSH (22) - admin access&lt;/div&gt;&lt;div&gt;HTTP (80) - website access&lt;/div&gt;&lt;div&gt;MySQL (3306) - Access to databases&lt;/div&gt;&lt;/div&gt;" style="text;html=1;strokeColor=none;fillColor=none;align=center;verticalAlign=middle;whiteSpace=wrap;rounded=0;fontColor=#CC6600;" vertex="1" parent="rvi_bXYax2LASAxKja3c-7">
          <mxGeometry x="20" y="70" width="158.5" height="30.5" as="geometry" />
        </mxCell>
        <mxCell id="rvi_bXYax2LASAxKja3c-36" value="t2.micro" style="text;html=1;strokeColor=none;fillColor=none;align=center;verticalAlign=middle;whiteSpace=wrap;rounded=0;" vertex="1" parent="rvi_bXYax2LASAxKja3c-7">
          <mxGeometry x="83.46000000000001" y="131" width="60" height="30" as="geometry" />
        </mxCell>
        <mxCell id="rvi_bXYax2LASAxKja3c-95" value="" style="rounded=0;whiteSpace=wrap;html=1;fillColor=none;strokeColor=#ffac4d;strokeWidth=2;" vertex="1" parent="rvi_bXYax2LASAxKja3c-3">
          <mxGeometry x="508.5" y="129" width="161.5" height="151" as="geometry" />
        </mxCell>
        <mxCell id="rvi_bXYax2LASAxKja3c-4" value="VPC" style="points=[[0,0],[0.25,0],[0.5,0],[0.75,0],[1,0],[1,0.25],[1,0.5],[1,0.75],[1,1],[0.75,1],[0.5,1],[0.25,1],[0,1],[0,0.75],[0,0.5],[0,0.25]];outlineConnect=0;gradientColor=none;html=1;whiteSpace=wrap;fontSize=12;fontStyle=0;container=1;pointerEvents=0;collapsible=0;recursiveResize=0;shape=mxgraph.aws4.group;grIcon=mxgraph.aws4.group_vpc;strokeColor=#248814;fillColor=none;verticalAlign=top;align=left;spacingLeft=30;fontColor=#AAB7B8;dashed=0;" vertex="1" parent="rvi_bXYax2LASAxKja3c-3">
          <mxGeometry x="26.5" y="50" width="693.5" height="380" as="geometry" />
        </mxCell>
        <mxCell id="rvi_bXYax2LASAxKja3c-88" value="" style="rounded=0;whiteSpace=wrap;html=1;fillColor=none;strokeColor=#ffac4d;strokeWidth=2;" vertex="1" parent="rvi_bXYax2LASAxKja3c-4">
          <mxGeometry x="240" y="177.5" width="181.5" height="80" as="geometry" />
        </mxCell>
        <mxCell id="rvi_bXYax2LASAxKja3c-21" value="" style="sketch=0;points=[[0,0,0],[0.25,0,0],[0.5,0,0],[0.75,0,0],[1,0,0],[0,1,0],[0.25,1,0],[0.5,1,0],[0.75,1,0],[1,1,0],[0,0.25,0],[0,0.5,0],[0,0.75,0],[1,0.25,0],[1,0.5,0],[1,0.75,0]];outlineConnect=0;fontColor=#232F3E;gradientColor=#945DF2;gradientDirection=north;fillColor=#5A30B5;strokeColor=#ffffff;dashed=0;verticalLabelPosition=bottom;verticalAlign=top;align=center;html=1;fontSize=12;fontStyle=0;aspect=fixed;shape=mxgraph.aws4.resourceIcon;resIcon=mxgraph.aws4.elastic_load_balancing;" vertex="1" parent="rvi_bXYax2LASAxKja3c-4">
          <mxGeometry x="376.5" y="195" width="45" height="45" as="geometry" />
        </mxCell>
        <mxCell id="rvi_bXYax2LASAxKja3c-25" style="edgeStyle=orthogonalEdgeStyle;rounded=0;orthogonalLoop=1;jettySize=auto;html=1;" edge="1" parent="rvi_bXYax2LASAxKja3c-4" source="rvi_bXYax2LASAxKja3c-24" target="rvi_bXYax2LASAxKja3c-21">
          <mxGeometry relative="1" as="geometry">
            <Array as="points">
              <mxPoint x="399" y="130" />
            </Array>
          </mxGeometry>
        </mxCell>
        <mxCell id="rvi_bXYax2LASAxKja3c-24" value="" style="sketch=0;outlineConnect=0;fontColor=#232F3E;gradientColor=none;fillColor=#4D27AA;strokeColor=none;dashed=0;verticalLabelPosition=bottom;verticalAlign=top;align=center;html=1;fontSize=12;fontStyle=0;aspect=fixed;pointerEvents=1;shape=mxgraph.aws4.internet_gateway;" vertex="1" parent="rvi_bXYax2LASAxKja3c-4">
          <mxGeometry x="260.5" y="95" width="40" height="40" as="geometry" />
        </mxCell>
        <mxCell id="rvi_bXYax2LASAxKja3c-34" value="Internet&lt;br&gt;&amp;nbsp;Gateway" style="text;html=1;align=center;verticalAlign=middle;resizable=0;points=[];autosize=1;strokeColor=none;fillColor=none;" vertex="1" parent="rvi_bXYax2LASAxKja3c-4">
          <mxGeometry x="245.5" y="130" width="70" height="40" as="geometry" />
        </mxCell>
        <mxCell id="rvi_bXYax2LASAxKja3c-54" style="edgeStyle=orthogonalEdgeStyle;rounded=0;orthogonalLoop=1;jettySize=auto;html=1;entryX=0.5;entryY=0;entryDx=0;entryDy=0;entryPerimeter=0;" edge="1" parent="rvi_bXYax2LASAxKja3c-4" source="rvi_bXYax2LASAxKja3c-43" target="rvi_bXYax2LASAxKja3c-52">
          <mxGeometry relative="1" as="geometry" />
        </mxCell>
        <mxCell id="rvi_bXYax2LASAxKja3c-43" value="" style="sketch=0;points=[[0,0,0],[0.25,0,0],[0.5,0,0],[0.75,0,0],[1,0,0],[0,1,0],[0.25,1,0],[0.5,1,0],[0.75,1,0],[1,1,0],[0,0.25,0],[0,0.5,0],[0,0.75,0],[1,0.25,0],[1,0.5,0],[1,0.75,0]];outlineConnect=0;fontColor=#232F3E;gradientColor=#F54749;gradientDirection=north;fillColor=#C7131F;strokeColor=#ffffff;dashed=0;verticalLabelPosition=bottom;verticalAlign=top;align=center;html=1;fontSize=12;fontStyle=0;aspect=fixed;shape=mxgraph.aws4.resourceIcon;resIcon=mxgraph.aws4.waf;" vertex="1" parent="rvi_bXYax2LASAxKja3c-4">
          <mxGeometry x="304.25" width="40" height="40" as="geometry" />
        </mxCell>
        <mxCell id="rvi_bXYax2LASAxKja3c-53" style="edgeStyle=orthogonalEdgeStyle;rounded=0;orthogonalLoop=1;jettySize=auto;html=1;" edge="1" parent="rvi_bXYax2LASAxKja3c-4" source="rvi_bXYax2LASAxKja3c-52" target="rvi_bXYax2LASAxKja3c-24">
          <mxGeometry relative="1" as="geometry">
            <Array as="points">
              <mxPoint x="281" y="75" />
            </Array>
          </mxGeometry>
        </mxCell>
        <mxCell id="rvi_bXYax2LASAxKja3c-52" value="" style="outlineConnect=0;dashed=0;verticalLabelPosition=bottom;verticalAlign=top;align=center;html=1;shape=mxgraph.aws3.route_53;fillColor=#F58536;gradientColor=none;" vertex="1" parent="rvi_bXYax2LASAxKja3c-4">
          <mxGeometry x="376.5" y="50" width="38.25" height="50" as="geometry" />
        </mxCell>
        <mxCell id="rvi_bXYax2LASAxKja3c-56" value="Route 53" style="text;html=1;strokeColor=none;fillColor=none;align=center;verticalAlign=middle;whiteSpace=wrap;rounded=0;" vertex="1" parent="rvi_bXYax2LASAxKja3c-4">
          <mxGeometry x="365.5" y="100" width="60" height="30" as="geometry" />
        </mxCell>
        <mxCell id="rvi_bXYax2LASAxKja3c-32" value="Amazon WAF" style="text;html=1;align=center;verticalAlign=middle;resizable=0;points=[];autosize=1;strokeColor=none;fillColor=none;" vertex="1" parent="rvi_bXYax2LASAxKja3c-4">
          <mxGeometry x="276.5" y="40" width="100" height="30" as="geometry" />
        </mxCell>
        <mxCell id="rvi_bXYax2LASAxKja3c-90" value="&lt;div&gt;Load Balancer security group&lt;/div&gt;&lt;div&gt;HTTP (80)&lt;/div&gt;&lt;div&gt;HTTPS (443)&lt;/div&gt;&lt;div&gt;&lt;br&gt;&lt;/div&gt;" style="text;html=1;strokeColor=none;fillColor=none;align=center;verticalAlign=middle;whiteSpace=wrap;rounded=0;fontColor=#CC6600;" vertex="1" parent="rvi_bXYax2LASAxKja3c-4">
          <mxGeometry x="233" y="210" width="147" height="30" as="geometry" />
        </mxCell>
        <mxCell id="rvi_bXYax2LASAxKja3c-9" value="Availability Zone 2" style="fillColor=none;strokeColor=#147EBA;dashed=1;verticalAlign=top;fontStyle=0;fontColor=#147EBA;whiteSpace=wrap;html=1;" vertex="1" parent="rvi_bXYax2LASAxKja3c-3">
          <mxGeometry x="463" y="19" width="210" height="400" as="geometry" />
        </mxCell>
        <mxCell id="rvi_bXYax2LASAxKja3c-10" value="Public subnet" style="points=[[0,0],[0.25,0],[0.5,0],[0.75,0],[1,0],[1,0.25],[1,0.5],[1,0.75],[1,1],[0.75,1],[0.5,1],[0.25,1],[0,1],[0,0.75],[0,0.5],[0,0.25]];outlineConnect=0;gradientColor=none;html=1;whiteSpace=wrap;fontSize=12;fontStyle=0;container=1;pointerEvents=0;collapsible=0;recursiveResize=0;shape=mxgraph.aws4.group;grIcon=mxgraph.aws4.group_security_group;grStroke=0;strokeColor=#248814;fillColor=#E9F3E6;verticalAlign=top;align=left;spacingLeft=30;fontColor=#248814;dashed=0;" vertex="1" parent="rvi_bXYax2LASAxKja3c-3">
          <mxGeometry x="463" y="90" width="210" height="199" as="geometry" />
        </mxCell>
        <mxCell id="rvi_bXYax2LASAxKja3c-97" value="" style="rounded=0;whiteSpace=wrap;html=1;fillColor=none;strokeColor=#ffac4d;strokeWidth=2;" vertex="1" parent="rvi_bXYax2LASAxKja3c-10">
          <mxGeometry x="-4.5" y="34.5" width="180" height="151" as="geometry" />
        </mxCell>
        <mxCell id="rvi_bXYax2LASAxKja3c-99" value="&lt;div&gt;&lt;div&gt;EC2 instance security group&lt;/div&gt;&lt;div&gt;&lt;br&gt;&lt;/div&gt;&lt;div&gt;SSH (22) - admin access&lt;/div&gt;&lt;div&gt;HTTP (80) - website access&lt;/div&gt;&lt;div&gt;MySQL (3306) - Access to databases&lt;/div&gt;&lt;/div&gt;" style="text;html=1;strokeColor=none;fillColor=none;align=center;verticalAlign=middle;whiteSpace=wrap;rounded=0;fontColor=#CC6600;" vertex="1" parent="rvi_bXYax2LASAxKja3c-10">
          <mxGeometry x="-4.5" y="64.5" width="158.5" height="30.5" as="geometry" />
        </mxCell>
        <mxCell id="rvi_bXYax2LASAxKja3c-100" value="t2.micro" style="text;html=1;strokeColor=none;fillColor=none;align=center;verticalAlign=middle;whiteSpace=wrap;rounded=0;" vertex="1" parent="rvi_bXYax2LASAxKja3c-10">
          <mxGeometry x="58.960000000000036" y="125.5" width="60" height="30" as="geometry" />
        </mxCell>
        <mxCell id="rvi_bXYax2LASAxKja3c-14" value="" style="sketch=0;points=[[0,0,0],[0.25,0,0],[0.5,0,0],[0.75,0,0],[1,0,0],[0,1,0],[0.25,1,0],[0.5,1,0],[0.75,1,0],[1,1,0],[0,0.25,0],[0,0.5,0],[0,0.75,0],[1,0.25,0],[1,0.5,0],[1,0.75,0]];outlineConnect=0;fontColor=#232F3E;gradientColor=#F78E04;gradientDirection=north;fillColor=#D05C17;strokeColor=#ffffff;dashed=0;verticalLabelPosition=bottom;verticalAlign=top;align=center;html=1;fontSize=12;fontStyle=0;aspect=fixed;shape=mxgraph.aws4.resourceIcon;resIcon=mxgraph.aws4.compute;" vertex="1" parent="rvi_bXYax2LASAxKja3c-10">
          <mxGeometry x="120.5" y="125.5" width="50" height="50" as="geometry" />
        </mxCell>
        <mxCell id="rvi_bXYax2LASAxKja3c-11" value="Private subnet" style="points=[[0,0],[0.25,0],[0.5,0],[0.75,0],[1,0],[1,0.25],[1,0.5],[1,0.75],[1,1],[0.75,1],[0.5,1],[0.25,1],[0,1],[0,0.75],[0,0.5],[0,0.25]];outlineConnect=0;gradientColor=none;html=1;whiteSpace=wrap;fontSize=12;fontStyle=0;container=1;pointerEvents=0;collapsible=0;recursiveResize=0;shape=mxgraph.aws4.group;grIcon=mxgraph.aws4.group_security_group;grStroke=0;strokeColor=#147EBA;fillColor=#E6F2F8;verticalAlign=top;align=left;spacingLeft=30;fontColor=#147EBA;dashed=0;" vertex="1" parent="rvi_bXYax2LASAxKja3c-3">
          <mxGeometry x="463" y="289" width="210" height="130" as="geometry" />
        </mxCell>
        <mxCell id="rvi_bXYax2LASAxKja3c-39" value="DBMS" style="text;html=1;strokeColor=none;fillColor=none;align=center;verticalAlign=middle;whiteSpace=wrap;rounded=0;" vertex="1" parent="rvi_bXYax2LASAxKja3c-11">
          <mxGeometry x="10.5" y="90" width="60" height="30" as="geometry" />
        </mxCell>
        <mxCell id="rvi_bXYax2LASAxKja3c-66" value="Parameter Store" style="text;html=1;strokeColor=none;fillColor=none;align=center;verticalAlign=middle;whiteSpace=wrap;rounded=0;" vertex="1" parent="rvi_bXYax2LASAxKja3c-11">
          <mxGeometry x="115.5" y="91" width="60" height="30" as="geometry" />
        </mxCell>
        <mxCell id="rvi_bXYax2LASAxKja3c-8" value="Private subnet" style="points=[[0,0],[0.25,0],[0.5,0],[0.75,0],[1,0],[1,0.25],[1,0.5],[1,0.75],[1,1],[0.75,1],[0.5,1],[0.25,1],[0,1],[0,0.75],[0,0.5],[0,0.25]];outlineConnect=0;gradientColor=none;html=1;whiteSpace=wrap;fontSize=12;fontStyle=0;container=1;pointerEvents=0;collapsible=0;recursiveResize=0;shape=mxgraph.aws4.group;grIcon=mxgraph.aws4.group_security_group;grStroke=0;strokeColor=#147EBA;fillColor=#E6F2F8;verticalAlign=top;align=left;spacingLeft=30;fontColor=#147EBA;dashed=0;" vertex="1" parent="rvi_bXYax2LASAxKja3c-3">
          <mxGeometry x="55.5" y="289" width="210" height="130" as="geometry" />
        </mxCell>
        <mxCell id="rvi_bXYax2LASAxKja3c-38" value="DBMS" style="text;html=1;strokeColor=none;fillColor=none;align=center;verticalAlign=middle;whiteSpace=wrap;rounded=0;" vertex="1" parent="rvi_bXYax2LASAxKja3c-8">
          <mxGeometry x="20" y="90" width="60" height="30" as="geometry" />
        </mxCell>
        <mxCell id="rvi_bXYax2LASAxKja3c-59" value="" style="sketch=0;outlineConnect=0;fontColor=#232F3E;gradientColor=none;fillColor=#B0084D;strokeColor=none;dashed=0;verticalLabelPosition=bottom;verticalAlign=top;align=center;html=1;fontSize=12;fontStyle=0;aspect=fixed;pointerEvents=1;shape=mxgraph.aws4.parameter_store;" vertex="1" parent="rvi_bXYax2LASAxKja3c-8">
          <mxGeometry x="133.45999999999998" y="39" width="49.04" height="51" as="geometry" />
        </mxCell>
        <mxCell id="rvi_bXYax2LASAxKja3c-65" value="Parameter Store" style="text;html=1;strokeColor=none;fillColor=none;align=center;verticalAlign=middle;whiteSpace=wrap;rounded=0;" vertex="1" parent="rvi_bXYax2LASAxKja3c-8">
          <mxGeometry x="122.5" y="90" width="60" height="30" as="geometry" />
        </mxCell>
        <mxCell id="rvi_bXYax2LASAxKja3c-23" style="edgeStyle=orthogonalEdgeStyle;rounded=0;orthogonalLoop=1;jettySize=auto;html=1;" edge="1" parent="rvi_bXYax2LASAxKja3c-3" source="rvi_bXYax2LASAxKja3c-88" target="rvi_bXYax2LASAxKja3c-14">
          <mxGeometry relative="1" as="geometry" />
        </mxCell>
        <mxCell id="rvi_bXYax2LASAxKja3c-67" style="edgeStyle=orthogonalEdgeStyle;rounded=0;orthogonalLoop=1;jettySize=auto;html=1;" edge="1" parent="rvi_bXYax2LASAxKja3c-3" source="rvi_bXYax2LASAxKja3c-14" target="rvi_bXYax2LASAxKja3c-63">
          <mxGeometry relative="1" as="geometry" />
        </mxCell>
        <mxCell id="rvi_bXYax2LASAxKja3c-44" value="" style="outlineConnect=0;dashed=0;verticalLabelPosition=bottom;verticalAlign=top;align=center;html=1;shape=mxgraph.aws3.cloudwatch;fillColor=#759C3E;gradientColor=none;" vertex="1" parent="rvi_bXYax2LASAxKja3c-3">
          <mxGeometry x="743" y="190" width="60" height="60" as="geometry" />
        </mxCell>
        <mxCell id="rvi_bXYax2LASAxKja3c-71" style="edgeStyle=orthogonalEdgeStyle;rounded=0;orthogonalLoop=1;jettySize=auto;html=1;" edge="1" parent="rvi_bXYax2LASAxKja3c-3" source="rvi_bXYax2LASAxKja3c-60" target="rvi_bXYax2LASAxKja3c-59">
          <mxGeometry relative="1" as="geometry" />
        </mxCell>
        <mxCell id="rvi_bXYax2LASAxKja3c-60" value="" style="sketch=0;points=[[0,0,0],[0.25,0,0],[0.5,0,0],[0.75,0,0],[1,0,0],[0,1,0],[0.25,1,0],[0.5,1,0],[0.75,1,0],[1,1,0],[0,0.25,0],[0,0.5,0],[0,0.75,0],[1,0.25,0],[1,0.5,0],[1,0.75,0]];outlineConnect=0;fontColor=#232F3E;gradientColor=#4D72F3;gradientDirection=north;fillColor=#3334B9;strokeColor=#ffffff;dashed=0;verticalLabelPosition=bottom;verticalAlign=top;align=center;html=1;fontSize=12;fontStyle=0;aspect=fixed;shape=mxgraph.aws4.resourceIcon;resIcon=mxgraph.aws4.database;" vertex="1" parent="rvi_bXYax2LASAxKja3c-3">
          <mxGeometry x="83" y="329" width="50" height="50" as="geometry" />
        </mxCell>
        <mxCell id="rvi_bXYax2LASAxKja3c-72" style="edgeStyle=orthogonalEdgeStyle;rounded=0;orthogonalLoop=1;jettySize=auto;html=1;" edge="1" parent="rvi_bXYax2LASAxKja3c-3" source="rvi_bXYax2LASAxKja3c-59" target="rvi_bXYax2LASAxKja3c-13">
          <mxGeometry relative="1" as="geometry" />
        </mxCell>
        <mxCell id="rvi_bXYax2LASAxKja3c-73" style="edgeStyle=orthogonalEdgeStyle;rounded=0;orthogonalLoop=1;jettySize=auto;html=1;" edge="1" parent="rvi_bXYax2LASAxKja3c-3" source="rvi_bXYax2LASAxKja3c-13" target="rvi_bXYax2LASAxKja3c-59">
          <mxGeometry relative="1" as="geometry" />
        </mxCell>
        <mxCell id="rvi_bXYax2LASAxKja3c-74" style="edgeStyle=orthogonalEdgeStyle;rounded=0;orthogonalLoop=1;jettySize=auto;html=1;entryX=1;entryY=0.5;entryDx=0;entryDy=0;entryPerimeter=0;" edge="1" parent="rvi_bXYax2LASAxKja3c-3" source="rvi_bXYax2LASAxKja3c-59" target="rvi_bXYax2LASAxKja3c-60">
          <mxGeometry relative="1" as="geometry" />
        </mxCell>
        <mxCell id="rvi_bXYax2LASAxKja3c-77" value="10.0.0.0 / 24" style="text;html=1;strokeColor=none;fillColor=none;align=center;verticalAlign=middle;whiteSpace=wrap;rounded=0;" vertex="1" parent="rvi_bXYax2LASAxKja3c-3">
          <mxGeometry x="165.5" y="89" width="80" height="30" as="geometry" />
        </mxCell>
        <mxCell id="rvi_bXYax2LASAxKja3c-76" value="10.0.0.0 / 16" style="text;html=1;strokeColor=none;fillColor=none;align=center;verticalAlign=middle;whiteSpace=wrap;rounded=0;" vertex="1" parent="rvi_bXYax2LASAxKja3c-3">
          <mxGeometry x="83" y="50" width="80" height="30" as="geometry" />
        </mxCell>
        <mxCell id="rvi_bXYax2LASAxKja3c-47" value="CloudWatch" style="text;html=1;align=center;verticalAlign=middle;resizable=0;points=[];autosize=1;strokeColor=none;fillColor=none;" vertex="1" parent="rvi_bXYax2LASAxKja3c-3">
          <mxGeometry x="728" y="245" width="90" height="30" as="geometry" />
        </mxCell>
        <mxCell id="rvi_bXYax2LASAxKja3c-50" value="" style="outlineConnect=0;dashed=0;verticalLabelPosition=bottom;verticalAlign=top;align=center;html=1;shape=mxgraph.aws3.cloudtrail;fillColor=#759C3E;gradientColor=none;" vertex="1" parent="rvi_bXYax2LASAxKja3c-3">
          <mxGeometry x="743" y="90" width="55" height="60" as="geometry" />
        </mxCell>
        <mxCell id="rvi_bXYax2LASAxKja3c-51" value="CloudTrail" style="text;html=1;align=center;verticalAlign=middle;resizable=0;points=[];autosize=1;strokeColor=none;fillColor=none;" vertex="1" parent="rvi_bXYax2LASAxKja3c-3">
          <mxGeometry x="733" y="150" width="80" height="30" as="geometry" />
        </mxCell>
        <mxCell id="rvi_bXYax2LASAxKja3c-57" value="" style="outlineConnect=0;dashed=0;verticalLabelPosition=bottom;verticalAlign=top;align=center;html=1;shape=mxgraph.aws3.x_ray;fillColor=#759C3E;gradientColor=none;" vertex="1" parent="rvi_bXYax2LASAxKja3c-3">
          <mxGeometry x="746.13" y="280" width="48.75" height="60.5" as="geometry" />
        </mxCell>
        <mxCell id="rvi_bXYax2LASAxKja3c-68" style="edgeStyle=orthogonalEdgeStyle;rounded=0;orthogonalLoop=1;jettySize=auto;html=1;" edge="1" parent="rvi_bXYax2LASAxKja3c-3" source="rvi_bXYax2LASAxKja3c-63" target="rvi_bXYax2LASAxKja3c-64">
          <mxGeometry relative="1" as="geometry" />
        </mxCell>
        <mxCell id="rvi_bXYax2LASAxKja3c-70" style="edgeStyle=orthogonalEdgeStyle;rounded=0;orthogonalLoop=1;jettySize=auto;html=1;entryX=0.5;entryY=1;entryDx=0;entryDy=0;entryPerimeter=0;" edge="1" parent="rvi_bXYax2LASAxKja3c-3" source="rvi_bXYax2LASAxKja3c-63" target="rvi_bXYax2LASAxKja3c-14">
          <mxGeometry relative="1" as="geometry" />
        </mxCell>
        <mxCell id="rvi_bXYax2LASAxKja3c-63" value="" style="sketch=0;outlineConnect=0;fontColor=#232F3E;gradientColor=none;fillColor=#B0084D;strokeColor=none;dashed=0;verticalLabelPosition=bottom;verticalAlign=top;align=center;html=1;fontSize=12;fontStyle=0;aspect=fixed;pointerEvents=1;shape=mxgraph.aws4.parameter_store;" vertex="1" parent="rvi_bXYax2LASAxKja3c-3">
          <mxGeometry x="584.46" y="328" width="49.04" height="51" as="geometry" />
        </mxCell>
        <mxCell id="rvi_bXYax2LASAxKja3c-69" style="edgeStyle=orthogonalEdgeStyle;rounded=0;orthogonalLoop=1;jettySize=auto;html=1;" edge="1" parent="rvi_bXYax2LASAxKja3c-3" source="rvi_bXYax2LASAxKja3c-64" target="rvi_bXYax2LASAxKja3c-63">
          <mxGeometry relative="1" as="geometry" />
        </mxCell>
        <mxCell id="rvi_bXYax2LASAxKja3c-64" value="" style="sketch=0;points=[[0,0,0],[0.25,0,0],[0.5,0,0],[0.75,0,0],[1,0,0],[0,1,0],[0.25,1,0],[0.5,1,0],[0.75,1,0],[1,1,0],[0,0.25,0],[0,0.5,0],[0,0.75,0],[1,0.25,0],[1,0.5,0],[1,0.75,0]];outlineConnect=0;fontColor=#232F3E;gradientColor=#4D72F3;gradientDirection=north;fillColor=#3334B9;strokeColor=#ffffff;dashed=0;verticalLabelPosition=bottom;verticalAlign=top;align=center;html=1;fontSize=12;fontStyle=0;aspect=fixed;shape=mxgraph.aws4.resourceIcon;resIcon=mxgraph.aws4.database;" vertex="1" parent="rvi_bXYax2LASAxKja3c-3">
          <mxGeometry x="478.5" y="329" width="50" height="50" as="geometry" />
        </mxCell>
        <mxCell id="rvi_bXYax2LASAxKja3c-78" value="10.0.1.0 / 24" style="text;html=1;strokeColor=none;fillColor=none;align=center;verticalAlign=middle;whiteSpace=wrap;rounded=0;" vertex="1" parent="rvi_bXYax2LASAxKja3c-3">
          <mxGeometry x="568.5" y="90" width="80" height="30" as="geometry" />
        </mxCell>
        <mxCell id="rvi_bXYax2LASAxKja3c-86" value="" style="rounded=0;whiteSpace=wrap;html=1;fillColor=none;strokeColor=#ffac4d;strokeWidth=2;" vertex="1" parent="rvi_bXYax2LASAxKja3c-3">
          <mxGeometry x="70" y="320" width="580" height="80" as="geometry" />
        </mxCell>
        <mxCell id="rvi_bXYax2LASAxKja3c-87" value="&lt;div&gt;Security group for RDS database&lt;/div&gt;&lt;div&gt;MySQL (3306) - Access to databases&lt;/div&gt;" style="text;html=1;strokeColor=none;fillColor=none;align=center;verticalAlign=middle;whiteSpace=wrap;rounded=0;fontColor=#CC6600;" vertex="1" parent="rvi_bXYax2LASAxKja3c-3">
          <mxGeometry x="286.5" y="345" width="147" height="30" as="geometry" />
        </mxCell>
        <mxCell id="rvi_bXYax2LASAxKja3c-22" style="edgeStyle=orthogonalEdgeStyle;rounded=0;orthogonalLoop=1;jettySize=auto;html=1;" edge="1" parent="rvi_bXYax2LASAxKja3c-3" source="rvi_bXYax2LASAxKja3c-31" target="rvi_bXYax2LASAxKja3c-13">
          <mxGeometry relative="1" as="geometry">
            <Array as="points">
              <mxPoint x="238" y="220" />
            </Array>
          </mxGeometry>
        </mxCell>
        <mxCell id="rvi_bXYax2LASAxKja3c-31" value="Application &lt;br&gt;Load Balancer" style="text;html=1;align=center;verticalAlign=middle;resizable=0;points=[];autosize=1;strokeColor=none;fillColor=none;" vertex="1" parent="rvi_bXYax2LASAxKja3c-3">
          <mxGeometry x="368" y="288" width="100" height="40" as="geometry" />
        </mxCell>
        <mxCell id="-QjtrjUzRDEMRZ5MF8oH-47" value="csvc-assignment" style="text;html=1;resizable=0;points=[];autosize=1;align=left;verticalAlign=top;spacingTop=-4;fontSize=30;fontStyle=1" parent="1" vertex="1">
          <mxGeometry x="12" y="65.5" width="270" height="40" as="geometry" />
        </mxCell>
        <mxCell id="-QjtrjUzRDEMRZ5MF8oH-48" value="AWS architecture for YippieDo requirements" style="text;html=1;resizable=0;points=[];autosize=1;align=left;verticalAlign=top;spacingTop=-4;fontSize=16" parent="1" vertex="1">
          <mxGeometry x="12" y="115.5" width="340" height="30" as="geometry" />
        </mxCell>
        <mxCell id="SCVMTBWpLvtzJIhz15lM-1" value="" style="line;strokeWidth=2;html=1;fontSize=14;" parent="1" vertex="1">
          <mxGeometry x="8" y="140.5" width="1060" height="10" as="geometry" />
        </mxCell>
        <mxCell id="rvi_bXYax2LASAxKja3c-83" style="edgeStyle=orthogonalEdgeStyle;rounded=0;orthogonalLoop=1;jettySize=auto;html=1;entryX=0.5;entryY=0;entryDx=0;entryDy=0;entryPerimeter=0;" edge="1" parent="1" source="rvi_bXYax2LASAxKja3c-40" target="rvi_bXYax2LASAxKja3c-43">
          <mxGeometry relative="1" as="geometry">
            <Array as="points">
              <mxPoint x="369" y="320" />
              <mxPoint x="461" y="320" />
            </Array>
          </mxGeometry>
        </mxCell>
        <mxCell id="rvi_bXYax2LASAxKja3c-40" value="users" style="sketch=0;outlineConnect=0;gradientColor=none;fontColor=#545B64;strokeColor=none;fillColor=#879196;dashed=0;verticalLabelPosition=top;verticalAlign=bottom;align=center;html=1;fontSize=12;fontStyle=0;aspect=fixed;shape=mxgraph.aws4.illustration_users;pointerEvents=1;labelPosition=center;" vertex="1" parent="1">
          <mxGeometry x="348.5" y="200" width="40" height="40" as="geometry" />
        </mxCell>
        <mxCell id="rvi_bXYax2LASAxKja3c-84" style="edgeStyle=orthogonalEdgeStyle;rounded=0;orthogonalLoop=1;jettySize=auto;html=1;" edge="1" parent="1" source="rvi_bXYax2LASAxKja3c-42" target="rvi_bXYax2LASAxKja3c-43">
          <mxGeometry relative="1" as="geometry">
            <Array as="points">
              <mxPoint x="573" y="320" />
              <mxPoint x="461" y="320" />
            </Array>
          </mxGeometry>
        </mxCell>
        <mxCell id="rvi_bXYax2LASAxKja3c-42" value="admin" style="sketch=0;outlineConnect=0;gradientColor=none;fontColor=#545B64;strokeColor=none;fillColor=#879196;dashed=0;verticalLabelPosition=top;verticalAlign=bottom;align=center;html=1;fontSize=12;fontStyle=0;aspect=fixed;shape=mxgraph.aws4.illustration_users;pointerEvents=1;labelPosition=center;" vertex="1" parent="1">
          <mxGeometry x="553" y="200" width="40" height="40" as="geometry" />
        </mxCell>
        <mxCell id="rvi_bXYax2LASAxKja3c-58" value="X-ray" style="text;html=1;align=center;verticalAlign=middle;resizable=0;points=[];autosize=1;strokeColor=none;fillColor=none;" vertex="1" parent="1">
          <mxGeometry x="858" y="665" width="50" height="30" as="geometry" />
        </mxCell>
        <mxCell id="rvi_bXYax2LASAxKja3c-79" value="" style="sketch=0;points=[[0,0,0],[0.25,0,0],[0.5,0,0],[0.75,0,0],[1,0,0],[0,1,0],[0.25,1,0],[0.5,1,0],[0.75,1,0],[1,1,0],[0,0.25,0],[0,0.5,0],[0,0.75,0],[1,0.25,0],[1,0.5,0],[1,0.75,0]];outlineConnect=0;fontColor=#232F3E;gradientColor=#4D72F3;gradientDirection=north;fillColor=#3334B9;strokeColor=#ffffff;dashed=0;verticalLabelPosition=bottom;verticalAlign=top;align=center;html=1;fontSize=12;fontStyle=0;aspect=fixed;shape=mxgraph.aws4.resourceIcon;resIcon=mxgraph.aws4.database;" vertex="1" parent="1">
          <mxGeometry x="388.5" y="220" width="38" height="38" as="geometry" />
        </mxCell>
        <mxCell id="rvi_bXYax2LASAxKja3c-80" value="Database access right" style="text;html=1;strokeColor=none;fillColor=none;align=center;verticalAlign=middle;whiteSpace=wrap;rounded=0;" vertex="1" parent="1">
          <mxGeometry x="370" y="258" width="75" height="30" as="geometry" />
        </mxCell>
        <mxCell id="rvi_bXYax2LASAxKja3c-81" value="" style="sketch=0;points=[[0,0,0],[0.25,0,0],[0.5,0,0],[0.75,0,0],[1,0,0],[0,1,0],[0.25,1,0],[0.5,1,0],[0.75,1,0],[1,1,0],[0,0.25,0],[0,0.5,0],[0,0.75,0],[1,0.25,0],[1,0.5,0],[1,0.75,0]];outlineConnect=0;fontColor=#232F3E;gradientColor=#F54749;gradientDirection=north;fillColor=#C7131F;strokeColor=#ffffff;dashed=0;verticalLabelPosition=bottom;verticalAlign=top;align=center;html=1;fontSize=12;fontStyle=0;aspect=fixed;shape=mxgraph.aws4.resourceIcon;resIcon=mxgraph.aws4.identity_and_access_management;" vertex="1" parent="1">
          <mxGeometry x="593" y="220" width="40" height="40" as="geometry" />
        </mxCell>
        <mxCell id="rvi_bXYax2LASAxKja3c-82" value="Identity &amp;amp; Access Manager" style="text;html=1;align=center;verticalAlign=middle;resizable=0;points=[];autosize=1;strokeColor=none;fillColor=none;" vertex="1" parent="1">
          <mxGeometry x="523" y="260" width="170" height="30" as="geometry" />
        </mxCell>
      </root>
    </mxGraphModel>
  </diagram>
</mxfile>
